Naruto Shippuden Episode 276


Title: Invasion of the Gedou Mazou

Release date : August 23rd, 2012

Audio language : Japanese

SubTitle language : English

image

General

Format : MPEG-4
Format profile : Base Media
Codec ID : isom
File size : 50.9 MiB
Duration : 23mn 9s
Overall bit rate mode : Variable
Overall bit rate : 307 Kbps


Video

Format : AVC
Format/Info : Advanced Video Codec
Format profile : High@L3.0
Format settings, CABAC : Yes
Format settings, ReFrames : 6 frames
Codec ID : avc1
Codec ID/Info : Advanced Video Coding
Duration : 23mn 9s
Bit rate mode : Variable
Bit rate : 210 Kbps
Maximum bit rate : 1 487 Kbps
Width : 640 pixels
Height : 360 pixels
Display aspect ratio : 16:9
Original display aspect ratio : 16:9
Frame rate mode : Constant
Frame rate : 23.976 fps
Color space : YUV
Chroma subsampling : 4:2:0
Bit depth : 8 bits
Scan type : Progressive
Bits/(Pixel*Frame) : 0.038
Stream size : 34.8 MiB (68%)
Writing library : x264 core 125 r2208 d9d2288


Audio

ID : 2
Format : AAC
Format/Info : Advanced Audio Codec
Format profile : LC
Codec ID : 40
Duration : 23mn 9s
Bit rate mode : Variable
Bit rate : 93.3 Kbps
Maximum bit rate : 149 Kbps
Channel(s) : 2 channels
Channel positions : Front: L R
Sampling rate : 44.1 KHz
Compression mode : Lossy
Stream size : 15.5 MiB (30%)